<svg xmlns="http://www.w3.org/2000/svg" version="1.1" xmlns:xlink="http://www.w3.org/1999/xlink" xmlns:svgjs="http://svgjs.dev/svgjs" width="100%" height="100%" viewBox="0 0 1000 600"><rect width="1000" height="600" x="0" y="0" fill="#2f2e41"/><g><circle r="166.66666666666666" cx="310.7697397867838" cy="332.9919589084281" fill="white" transform="matrix(0.8674346277390317,0,0,0.8674346277390317,0,11.151233352826708)"/><path d="M273.8556861824665 397.9333581972237L273.8556861824665 397.9333581972237L273.8556861824665 378.955494368003Q282.15646710262314 384.3265879045748 290.48980010481955 387.2562752881595Q298.7905810249761 390.18596267174416 306.668184878615 390.18596267174416L306.668184878615 390.18596267174416Q318.97287188967067 390.18596267174416 324.1812050160434 382.92684837686215Q329.38953814241614 375.66773408198014 329.38953814241614 362.54924501992866L329.38953814241614 362.54924501992866L329.38953814241614 257.9919575079953L347.6838082488005 257.9919575079953L347.6838082488005 362.54924501992866Q347.6838082488005 378.5974214655648 342.8009959428261 388.6234627338324Q337.9507357188914 398.61695192006016 328.9663610758984 403.30445173379564Q320.0145385149452 407.99195154753113 307.84005983204884 407.99195154753113L307.84005983204884 407.99195154753113Q298.33485187641855 407.99195154753113 289.96896679218224 405.127368328026Q281.5705296259062 402.26278510852103 273.8556861824665 397.9333581972237Z " fill="#2f2e41" transform="matrix(0.8674346277390317,0,0,0.8674346277390317,0,11.151233352826708)"/><path d="M622.5363347109902 407.9919592104137L622.5363347109902 407.9919592104137Q603.3982928837739 407.9919592104137 589.5728178514036 398.3909348823787Q575.7473428190332 388.75790713991694 568.2585438431657 371.6680838360146Q560.7697448672985 354.5462571176855 560.7697448672985 331.9518465323765L560.7697448672985 331.9518465323765Q560.7697448672985 307.8852788834354 568.8986121317015 291.403520453642Q577.0274793961045 274.92176202384854 591.0129715006087 266.47286061517775Q605.0304670195399 257.99195579208015 622.5363347109902 257.99195579208015L622.5363347109902 257.99195579208015Q645.6748033415546 257.99195579208015 659.7883091037662 269.5771918145757Q673.9018148659776 281.1624278370713 679.2143816608235 299.69240479017884L679.2143816608235 299.69240479017884L659.8523159326197 303.6288247646732Q655.3718379128701 290.1553872909974 645.5147862694208 282.1225302698748Q635.6577346259716 274.12167666317896 622.5363347109902 274.12167666317896L622.5363347109902 274.12167666317896Q611.1111157606286 274.12167666317896 601.5100914325936 280.65037320624276Q591.8770636901319 287.1470663348798 586.0204388500305 300.0444423488735Q580.1318105955024 312.94181836286714 580.1318105955024 331.9518465323765L580.1318105955024 331.9518465323765Q580.1318105955024 349.2336903228395 584.8043091018127 362.739131210942Q589.4768076081231 376.21256868461785 598.8538080351706 383.92539156147257Q608.2308084622182 391.6382144383274 622.5363347109902 391.6382144383274L622.5363347109902 391.6382144383274Q639.6901648437462 391.6382144383274 649.771240388183 382.4212310834138Q659.8523159326197 373.20424772850015 659.8523159326197 358.2266497767656L659.8523159326197 358.2266497767656L679.438405561811 358.2266497767656Q679.438405561811 373.7803091881823 672.3016441446383 384.91749740870284Q665.1648827274656 396.02268221479665 652.2995101278988 402.0073207126052Q639.4661409427587 407.9919592104137 622.5363347109902 407.9919592104137ZM713.5540453407622 405.23966556971027L713.5540453407622 260.5202255317961L739.3487973687494 260.5202255317961L789.1141068023975 360.53089561549393L787.2899121800709 360.53089561549393L837.055221613719 260.5202255317961L862.177901938744 260.5202255317961L862.177901938744 405.23966556971027L843.9679591299042 405.23966556971027L843.9679591299042 279.2102195570375L847.2003039870093 279.2102195570375L794.2026496962561 387.02972276087064L782.2013692862123 387.02972276087064L729.4597423108734 279.88229126L731.5079608341877 279.88229126L731.5079608341877 405.23966556971027L713.5540453407622 405.23966556971027ZM955.0198071908422 407.9919592104137L955.0198071908422 407.9919592104137Q940.5222604555096 407.9919592104137 928.4249698021853 402.77540265884795Q916.3276791488612 397.52684269285555 908.9348904162742 387.25374666185803Q901.5741050981143 377.0126540452874 901.3500811971268 361.9070424358457L901.3500811971268 361.9070424358457L918.8559488885772 361.9070424358457Q918.8559488885772 372.052124809136 923.8164781247286 378.5808213521998Q928.77700736088 385.07751448083684 936.9378780397097 388.2458525090883Q945.1307521329662 391.4141905373399 954.795783289855 391.4141905373399L954.795783289855 391.4141905373399Q965.2929032218398 391.4141905373399 973.0057260986945 388.0858354369544Q980.7185489755492 384.7254769221422 984.9429996798848 379.2528930551622Q989.1354469697934 373.7803091881823 989.1354469697934 367.21960923069173L989.1354469697934 367.21960923069173Q989.1354469697934 358.0026258757781 983.5028460306795 352.3060181078107Q977.8382416771389 346.6094103398433 966.7970636998986 343.02502792404346L966.7970636998986 343.02502792404346L941.1943321584719 334.03206847011734Q923.2404166650466 327.5993821703339 914.0234333101329 319.2784944193703Q904.8064499552194 310.98961008283334 904.8064499552194 296.01201213109874L904.8064499552194 296.01201213109874Q904.8064499552194 279.2102195570375 917.7678327980665 268.58508596734544Q930.7292156409138 257.99195579208015 954.5717593888675 257.99195579208015L954.5717593888675 257.99195579208015Q976.6861187577746 257.99195579208015 989.1354469697934 268.20104499422405Q1001.584775181812 278.37813078194114 1003.4089698041388 295.5639643291238L1003.4089698041388 295.5639643291238L985.6790782117008 295.5639643291238Q983.9508938326545 285.54689561354064 976.3020777846533 279.94629808885355Q968.6212583222253 274.34570056416646 954.5717593888675 274.34570056416646L954.5717593888675 274.34570056416646Q940.2982365545221 274.34570056416646 932.3293863622529 280.6823766206695Q924.3925395844107 287.0190526771727 924.3925395844107 296.716087248488L924.3925395844107 296.716087248488Q924.3925395844107 304.65293402633023 929.3850722349888 309.3254325326406Q934.4096082999939 313.99793103895104 945.1307521329662 317.67832369803114L945.1307521329662 317.67832369803114L975.0859480364355 328.0474299723089Q990.6396074478522 333.2319831094478 999.6645703162052 342.57698012206856Q1008.7215365989847 351.88997372026245 1008.7215365989847 366.7715614287167L1008.7215365989847 366.7715614287167Q1008.7215365989847 378.2927906223588 1002.5448776146155 387.60578422055266Q996.4002220446731 396.9507812331734 984.3989416346295 402.48737192900694Q972.4296646390125 407.9919592104137 955.0198071908422 407.9919592104137Z " fill="white" transform="matrix(0.8674346277390317,0,0,0.8674346277390317,0,11.151233352826708)"/></g></svg>